<svg width="116" height="85" viewBox="0 0 116 85" fill="none" xmlns="http://www.w3.org/2000/svg">
<path opacity="0.4" d="M11.9238 65.8391C11.9238 65.8391 20.4749 72.4177 35.0465 70.036C49.6182 67.6542 75.9897 78.4406 75.9897 78.4406C75.9897 78.4406 90.002 85.8843 104.047 79.2427C118.093 72.6012 115.872 58.8253 115.872 58.8253C115.743 56.8104 115.606 46.9466 97.5579 22.0066C91.0438 13.0024 84.1597 6.97958 75.9458 3.74641C58.8245 -2.99096 37.7881 -0.447682 22.9067 9.81852C15.5647 14.8832 7.65514 22.0695 3.0465 31.5007C-7.27017 52.6135 11.9238 65.8391 11.9238 65.8391Z" fill="#F8D7C7"/>
<g clip-path="url(#clip0_897_323)">
<path d="M77.0155 45.3059C77.0034 45.318 76.9913 45.318 76.9791 45.318H67.5958V42.5504C67.5958 39.8677 65.3744 37.6705 62.6917 37.6705H52.6528C49.9701 37.6827 47.7973 39.8677 47.8094 42.5504V45.318H39.033C35.707 45.318 33 48.0007 33 51.3268C33 51.3389 33 51.351 33 51.3632V56.4008C33 58.4766 33.9711 60.3702 35.6706 61.4749V76.2357C35.6827 79.5982 38.4018 82.3173 41.7643 82.3294H74.2357C77.5982 82.3173 80.3173 79.5982 80.3294 76.2357V61.4749C82.0289 60.3702 83 58.4644 83 56.4008V51.3632C83.0121 48.0371 80.3294 45.3302 77.0155 45.3059ZM50.2372 42.5504C50.2251 41.2029 51.3054 40.1104 52.6528 40.0983H62.6917C64.0512 40.1104 65.1559 41.1908 65.168 42.5504V45.318H50.2372V42.5504ZM77.9138 76.2479C77.9017 78.275 76.2629 79.9138 74.2479 79.9138H41.7643C39.7371 79.9017 38.0983 78.2629 38.0983 76.2479V62.4824L48.7441 65.7356C54.7771 67.5928 61.235 67.5928 67.2802 65.7356L77.9138 62.4824V76.2479ZM80.6086 51.351V56.4008H80.5844C80.5965 57.8453 79.7468 59.1563 78.4358 59.739C78.4236 59.739 78.4236 59.7511 78.4115 59.7511C78.3023 59.7997 78.1809 59.8482 78.0716 59.8847H78.0595L66.564 63.4049C60.9922 65.1165 55.0442 65.1165 49.4724 63.4049L37.9648 59.8847C37.8555 59.8482 37.7463 59.8118 37.637 59.7633C37.637 59.7633 37.6492 59.7633 37.6492 59.7511C36.3018 59.1806 35.4399 57.8575 35.4521 56.3887V51.351C35.4399 49.3724 37.0301 47.7458 39.0087 47.7215C39.0209 47.7215 39.033 47.7215 39.0573 47.7215H77.0034C78.982 47.7094 80.5965 49.3117 80.6086 51.3025C80.6086 51.3146 80.6086 51.3268 80.6086 51.351Z" fill="#F55101"/>
<path d="M66.4912 52.7349C65.69 51.9459 64.6097 51.4968 63.4808 51.5089H52.5315C50.1887 51.5089 48.2829 53.4026 48.2708 55.7575C48.2708 56.8864 48.7199 57.9668 49.5089 58.7558C49.5089 58.7558 49.5211 58.7558 49.5211 58.7679C50.3222 59.557 51.4026 60.0061 52.5315 60.0061H63.4808C65.8357 60.0061 67.7415 58.1003 67.7294 55.7454C67.7294 54.6165 67.2924 53.5482 66.4912 52.7349ZM63.4808 57.5783H52.5315C51.524 57.5783 50.7107 56.765 50.7107 55.7575C50.7107 54.75 51.524 53.9367 52.5315 53.9367H63.4808C64.4883 53.9367 65.3016 54.75 65.3016 55.7575C65.3016 56.765 64.4883 57.5783 63.4808 57.5783Z" fill="#F55101"/>
</g>
<defs>
<clipPath id="clip0_897_323">
<rect width="50" height="50" fill="white" transform="translate(33 35)"/>
</clipPath>
</defs>
</svg>
