<svg width="116" height="85" viewBox="0 0 116 85" fill="none" xmlns="http://www.w3.org/2000/svg">
<path opacity="0.4" d="M11.9238 65.8391C11.9238 65.8391 20.4749 72.4177 35.0465 70.036C49.6182 67.6542 75.9897 78.4406 75.9897 78.4406C75.9897 78.4406 90.002 85.8843 104.047 79.2427C118.093 72.6012 115.872 58.8253 115.872 58.8253C115.743 56.8104 115.606 46.9466 97.5579 22.0066C91.0438 13.0024 84.1597 6.97958 75.9458 3.74641C58.8245 -2.99096 37.7881 -0.447682 22.9067 9.81852C15.5647 14.8832 7.65514 22.0695 3.0465 31.5007C-7.27017 52.6135 11.9238 65.8391 11.9238 65.8391Z" fill="#D9C3E2"/>
<g clip-path="url(#clip0_897_324)">
<path d="M59.6802 51.278C59.1981 50.31 57.8065 50.3006 57.3198 51.278L48.0912 69.8229C47.8819 70.2435 47.9122 70.7437 48.1709 71.136L53.2265 78.8037V83.6818C53.2265 84.4099 53.8168 85.0001 54.5449 85.0001H62.455C63.1831 85.0001 63.7734 84.4099 63.7734 83.6818V78.8037L68.829 71.136C69.0877 70.7437 69.118 70.2435 68.9087 69.8229L59.6802 51.278ZM61.1367 82.3634H55.8632V79.7267H61.1367V82.3634ZM61.7452 77.09H55.2548L50.7899 70.3182L57.1816 57.4738V70.4103C57.1816 71.1384 57.7719 71.7286 58.5 71.7286C59.228 71.7286 59.8183 71.1384 59.8183 70.4103V57.4738L66.2101 70.3182L61.7452 77.09Z" fill="#B94EE4"/>
<path d="M77.0449 40C75.3262 40 73.8608 41.1022 73.3166 42.6367H62.4551V41.3184C62.4551 40.5903 61.8648 40 61.1367 40H55.8633C55.1352 40 54.5449 40.5903 54.5449 41.3184V42.6367H43.6834C43.1392 41.1022 41.6738 40 39.9551 40C37.7742 40 36 41.7742 36 43.9551C36 46.1359 37.7742 47.9102 39.9551 47.9102C41.6738 47.9102 43.1392 46.807 43.6834 45.2726H48.6152C42.472 48.8006 38.6367 55.3182 38.6367 62.4121C38.6367 63.1402 39.227 63.7305 39.9551 63.7305C40.6832 63.7305 41.2734 63.1402 41.2734 62.4121C41.2734 54.4577 46.8808 47.5393 54.5449 45.7321V46.5918C54.5449 47.3199 55.1352 47.9102 55.8633 47.9102H61.1367C61.8648 47.9102 62.4551 47.3199 62.4551 46.5918V45.732C70.1192 47.5393 75.7266 54.4577 75.7266 62.4121C75.7266 63.1402 76.3168 63.7305 77.0449 63.7305C77.773 63.7305 78.3633 63.1402 78.3633 62.4121C78.3633 55.3272 74.5356 48.8059 68.3848 45.2734H73.3166C73.8608 46.8079 75.3262 47.9102 77.0449 47.9102C79.2258 47.9102 81 46.1359 81 43.9551C81 41.7742 79.2258 40 77.0449 40ZM39.9551 45.2734C39.2281 45.2734 38.6367 44.682 38.6367 43.9551C38.6367 43.2281 39.2281 42.6367 39.9551 42.6367C40.682 42.6367 41.2734 43.2281 41.2734 43.9551C41.2734 44.682 40.682 45.2734 39.9551 45.2734ZM59.8184 45.2734H57.1816V42.6367H59.8184V45.2734ZM77.0449 45.2734C76.318 45.2734 75.7266 44.682 75.7266 43.9551C75.7266 43.2281 76.318 42.6367 77.0449 42.6367C77.7719 42.6367 78.3633 43.2281 78.3633 43.9551C78.3633 44.682 77.7719 45.2734 77.0449 45.2734Z" fill="#B94EE4"/>
</g>
<defs>
<clipPath id="clip0_897_324">
<rect width="45" height="45" fill="white" transform="translate(36 40)"/>
</clipPath>
</defs>
</svg>
