<svg width="1920" height="960" viewBox="0 0 1920 960" fill="none" xmlns="http://www.w3.org/2000/svg">
<path d="M0 0H1920V960H0V0Z" fill="url(#paint0_linear_897_299)"/>
<g clip-path="url(#clip0_897_299)">
<g opacity="0.1" clip-path="url(#clip1_897_299)">
<path d="M1919 394.622L1919 49.2899L1560.48 49.2899L1560.48 204.199C1560.48 204.199 1659.73 210.84 1844.22 348.568C1866.99 365.748 1892.07 381.34 1919 394.622Z" fill="url(#paint1_linear_897_299)"/>
<path d="M731.809 -0.000119526C731.348 9.96139 732.425 21.7997 733.656 36.6698C735.195 53.4167 737.503 76.2271 740.58 104.668C745.966 152.743 751.659 200.962 751.813 201.54L757.352 247.305L803.359 248.46C811.514 249.615 899.99 264.629 1056.63 381.425C1145.41 447.69 1249.28 501.396 1349.45 501.396C1486.08 501.396 1559.79 456.352 1670.42 325.842C1744.28 238.643 1836.76 180.318 1919.08 141.915" stroke="url(#paint2_linear_897_299)" stroke-width="3" stroke-miterlimit="10"/>
<path d="M1919 143.339L1919 49.415L813 49.4149C818.765 106.693 831.447 204.223 831.447 204.223C831.447 204.223 937.847 210.86 1135.16 348.5C1283.07 451.513 1524.04 503.885 1707.52 301.898C1770.6 232.357 1845.38 181.139 1919 143.339Z" fill="url(#paint3_linear_897_299)"/>
<path opacity="0.5" d="M1846.45 61.5613L1846.45 49.4343L1005.55 49.4342C1079.56 97.3649 1166.96 159.011 1225.12 217.625C1344.22 337.596 1521.47 370.946 1698.73 184.276C1749.97 130.281 1800.44 90.5796 1846.45 61.5613Z" fill="url(#paint4_linear_897_299)"/>
<path d="M1447 49.4343L172.951 49.4342L172.951 259.781C172.951 259.781 399.91 206.508 676.724 384.227C953.383 561.947 1133.1 275.373 1319.9 133.169C1365.6 98.3756 1408.38 70.9454 1447 49.4343Z" fill="url(#paint5_linear_897_299)"/>
<path d="M1199.73 49.4342L-0.000203993 49.4341L-0.000242942 494.959C25.5423 503.621 53.5469 508.674 84.321 508.674C334.977 508.674 415.451 313.198 528.854 255.45C642.411 197.702 798.436 315.508 933.226 271.042C1035.24 237.259 1116.18 114.834 1199.73 49.4342Z" fill="url(#paint6_linear_897_299)"/>
</g>
</g>
<path opacity="0.3" d="M338.906 615.134V597.687L324.612 596.686C323.42 591.394 321.187 586.389 318.209 581.955L327.59 571.516L314.784 559.217L303.915 568.226C299.299 565.366 294.087 563.221 288.578 562.077L287.536 548.348H269.37L268.328 562.077C262.819 563.221 257.607 565.366 252.991 568.226L242.122 559.217L229.316 571.516L238.697 581.955C235.719 586.389 233.485 591.394 232.294 596.686L218 597.687V615.134L232.294 616.135C233.485 621.427 235.719 626.432 238.697 630.865L229.316 641.305L242.122 653.604L252.991 644.594C257.607 647.455 262.819 649.6 268.328 650.744L269.37 664.473H287.536L288.578 650.744C294.087 649.6 299.299 647.455 303.915 644.594L314.784 653.604L327.59 641.305L318.209 630.865C321.187 626.432 323.42 621.427 324.612 616.135L338.906 615.134ZM310.764 606.41C310.764 623.572 296.321 637.444 278.453 637.444C260.585 637.444 246.142 623.572 246.142 606.41C246.142 589.249 260.585 575.377 278.453 575.377C296.321 575.377 310.764 589.249 310.764 606.41Z" fill="white"/>
<path opacity="0.3" d="M635.102 545.934V539.212L629.593 538.783C629.146 536.638 628.253 534.779 627.062 533.063L630.635 529.058L625.573 524.196L621.404 527.628C619.617 526.484 617.532 525.626 615.448 525.197L615.001 519.906H607.854L607.407 525.197C605.174 525.626 603.238 526.484 601.451 527.628L597.282 524.196L592.219 529.058L595.793 533.063C594.602 534.779 593.708 536.781 593.262 538.783L587.752 539.212V546.077L593.262 546.506C593.708 548.651 594.602 550.51 595.793 552.226L592.219 556.231L597.282 561.093L601.451 557.661C603.238 558.805 605.323 559.663 607.407 560.092L607.854 565.383H615.001L615.448 560.092C617.681 559.663 619.617 558.805 621.404 557.661L625.573 561.093L630.635 556.231L627.062 552.226C628.253 550.51 629.146 548.508 629.593 546.506L635.102 545.934ZM624.084 542.501C624.084 549.223 618.426 554.657 611.427 554.657C604.429 554.657 598.771 549.223 598.771 542.501C598.771 535.78 604.429 530.345 611.427 530.345C618.426 530.488 624.084 535.923 624.084 542.501Z" fill="white"/>
<path opacity="0.4" d="M1434.89 576.83C1429.68 576.83 1425.36 580.977 1425.36 585.983C1425.36 590.988 1429.68 595.136 1434.89 595.136C1440.1 595.136 1444.42 590.988 1444.42 585.983C1444.42 580.834 1440.1 576.83 1434.89 576.83ZM1434.89 592.132C1431.32 592.132 1428.34 589.272 1428.34 585.84C1428.34 582.407 1431.32 579.547 1434.89 579.547C1438.46 579.547 1441.44 582.407 1441.44 585.84C1441.44 589.272 1438.46 592.132 1434.89 592.132ZM1455.29 601.285L1451.12 597.281C1450.38 596.566 1449.18 596.28 1448.29 596.566L1446.95 595.279C1449.04 592.704 1450.38 589.558 1450.38 585.983C1450.38 577.974 1443.53 571.396 1435.19 571.396C1426.85 571.396 1420 577.974 1420 585.983C1420 593.991 1426.85 600.57 1435.19 600.57C1438.91 600.57 1442.19 599.283 1444.87 597.281L1446.21 598.568C1445.91 599.569 1446.21 600.57 1446.95 601.285L1451.12 605.289C1451.72 605.861 1452.46 606.147 1453.2 606.147C1453.95 606.147 1454.69 605.861 1455.29 605.289C1456.33 604.288 1456.33 602.429 1455.29 601.285ZM1422.68 585.84C1422.68 579.404 1428.19 574.113 1434.89 574.113C1441.59 574.113 1447.1 579.404 1447.1 585.84C1447.1 592.275 1441.59 597.567 1434.89 597.567C1428.19 597.71 1422.68 592.418 1422.68 585.84Z" fill="#8F50F2"/>
<path opacity="0.3" d="M581.031 368.353C578.798 368.353 576.713 368.639 574.777 368.925C571.353 347.617 552.294 331.313 529.214 331.313C503.753 331.313 483.204 351.192 483.204 375.504C483.204 377.22 483.353 378.793 483.502 380.509C481.715 380.223 480.078 380.08 478.142 380.08C462.656 380.08 450 392.236 450 407.11C450 421.983 462.656 434.139 478.142 434.139H581.031C599.941 434.139 615.278 419.409 615.278 401.246C615.278 383.084 599.941 368.353 581.031 368.353Z" fill="white"/>
<path opacity="0.3" d="M1624.92 291.039C1623.88 291.039 1622.84 291.182 1621.79 291.325C1620.16 280.742 1610.63 272.733 1599.31 272.733C1586.65 272.733 1576.53 282.601 1576.53 294.614C1576.53 295.472 1576.53 296.33 1576.68 297.045C1575.78 296.902 1574.89 296.759 1574 296.759C1566.25 296.759 1560 302.766 1560 310.202C1560 317.639 1566.25 323.645 1574 323.645H1625.07C1634.45 323.645 1642.04 316.352 1642.04 307.342C1642.04 298.332 1634.3 291.039 1624.92 291.039Z" fill="white"/>
<path opacity="0.3" d="M1315.92 192.125C1314.88 192.125 1313.84 192.268 1312.79 192.411C1311.16 181.828 1301.63 173.82 1290.31 173.82C1277.65 173.82 1267.53 183.687 1267.53 195.7C1267.53 196.558 1267.53 197.416 1267.68 198.131C1266.78 197.988 1265.89 197.845 1265 197.845C1257.25 197.845 1251 203.852 1251 211.289C1251 218.725 1257.25 224.732 1265 224.732H1316.07C1325.45 224.732 1333.04 217.438 1333.04 208.428C1333.04 199.419 1325.3 192.125 1315.92 192.125Z" fill="white"/>
<path opacity="0.3" d="M1426.92 425.485C1425.88 425.485 1424.84 425.628 1423.79 425.771C1422.16 415.188 1412.63 407.179 1401.31 407.179C1388.65 407.179 1378.53 417.047 1378.53 429.06C1378.53 429.918 1378.53 430.776 1378.68 431.491C1377.78 431.348 1376.89 431.205 1376 431.205C1368.25 431.205 1362 437.212 1362 444.648C1362 452.085 1368.25 458.091 1376 458.091H1427.07C1436.45 458.091 1444.04 450.798 1444.04 441.788C1444.04 432.778 1436.3 425.485 1426.92 425.485Z" fill="white"/>
<g opacity="0.3">
<path opacity="0.3" d="M1020.16 562.202C1019.71 562.202 1019.41 561.916 1019.41 561.487V558.626C1019.41 558.197 1019.71 557.911 1020.16 557.911C1020.6 557.911 1020.9 558.197 1020.9 558.626V561.487C1020.9 561.916 1020.6 562.202 1020.16 562.202ZM1020.16 552.191C1019.71 552.191 1019.41 551.905 1019.41 551.476V548.616C1019.41 548.187 1019.71 547.901 1020.16 547.901C1020.6 547.901 1020.9 548.187 1020.9 548.616V551.476C1020.9 551.905 1020.6 552.191 1020.16 552.191ZM1020.16 542.18C1019.71 542.18 1019.41 541.894 1019.41 541.465V538.605C1019.41 538.176 1019.71 537.89 1020.16 537.89C1020.6 537.89 1020.9 538.176 1020.9 538.605V541.465C1020.9 541.894 1020.6 542.18 1020.16 542.18ZM1020.16 532.169C1019.71 532.169 1019.41 531.883 1019.41 531.454V528.594C1019.41 528.165 1019.71 527.879 1020.16 527.879C1020.6 527.879 1020.9 528.165 1020.9 528.594V531.454C1020.9 531.883 1020.6 532.169 1020.16 532.169ZM1020.16 522.158C1019.71 522.158 1019.41 521.872 1019.41 521.443V518.583C1019.41 518.154 1019.71 517.868 1020.16 517.868C1020.6 517.868 1020.9 518.154 1020.9 518.583V521.443C1020.9 521.872 1020.6 522.158 1020.16 522.158ZM1020.16 512.148C1019.71 512.148 1019.41 511.862 1019.41 511.433V508.572C1019.41 508.143 1019.71 507.857 1020.16 507.857C1020.6 507.857 1020.9 508.143 1020.9 508.572V511.433C1020.9 511.862 1020.6 512.148 1020.16 512.148ZM1020.16 502.137C1019.71 502.137 1019.41 501.851 1019.41 501.422V498.561C1019.41 498.132 1019.71 497.846 1020.16 497.846C1020.6 497.846 1020.9 498.132 1020.9 498.561V501.422C1020.9 501.851 1020.6 502.137 1020.16 502.137Z" fill="white"/>
</g>
<g opacity="0.3">
<path opacity="0.3" d="M1205.68 466.813H1202.71C1202.26 466.813 1201.96 466.527 1201.96 466.098C1201.96 465.669 1202.26 465.383 1202.71 465.383H1205.68C1206.13 465.383 1206.43 465.669 1206.43 466.098C1206.43 466.384 1206.13 466.813 1205.68 466.813ZM1195.26 466.813H1192.28C1191.84 466.813 1191.54 466.527 1191.54 466.098C1191.54 465.669 1191.84 465.383 1192.28 465.383H1195.26C1195.71 465.383 1196.01 465.669 1196.01 466.098C1196.01 466.384 1195.71 466.813 1195.26 466.813ZM1184.84 466.813H1181.86C1181.41 466.813 1181.12 466.527 1181.12 466.098C1181.12 465.669 1181.41 465.383 1181.86 465.383H1184.84C1185.28 465.383 1185.58 465.669 1185.58 466.098C1185.58 466.384 1185.28 466.813 1184.84 466.813ZM1174.41 466.813H1171.44C1170.99 466.813 1170.69 466.527 1170.69 466.098C1170.69 465.669 1170.99 465.383 1171.44 465.383H1174.41C1174.86 465.383 1175.16 465.669 1175.16 466.098C1175.16 466.384 1174.86 466.813 1174.41 466.813ZM1163.99 466.813H1161.01C1160.57 466.813 1160.27 466.527 1160.27 466.098C1160.27 465.669 1160.57 465.383 1161.01 465.383H1163.99C1164.44 465.383 1164.74 465.669 1164.74 466.098C1164.74 466.384 1164.44 466.813 1163.99 466.813ZM1153.57 466.813H1150.59C1150.14 466.813 1149.85 466.527 1149.85 466.098C1149.85 465.669 1150.14 465.383 1150.59 465.383H1153.57C1154.02 465.383 1154.31 465.669 1154.31 466.098C1154.31 466.384 1154.02 466.813 1153.57 466.813ZM1143.15 466.813H1140.17C1139.72 466.813 1139.42 466.527 1139.42 466.098C1139.42 465.669 1139.72 465.383 1140.17 465.383H1143.15C1143.59 465.383 1143.89 465.669 1143.89 466.098C1143.89 466.384 1143.59 466.813 1143.15 466.813ZM1132.72 466.813H1129.75C1129.3 466.813 1129 466.527 1129 466.098C1129 465.669 1129.3 465.383 1129.75 465.383H1132.72C1133.17 465.383 1133.47 465.669 1133.47 466.098C1133.47 466.384 1133.17 466.813 1132.72 466.813ZM1122.3 466.813H1119.32C1118.88 466.813 1118.58 466.527 1118.58 466.098C1118.58 465.669 1118.88 465.383 1119.32 465.383H1122.3C1122.75 465.383 1123.04 465.669 1123.04 466.098C1123.04 466.384 1122.75 466.813 1122.3 466.813Z" fill="white"/>
</g>
<path d="M743.632 544.004L799.767 491.948L742.292 529.989L743.632 544.004Z" fill="#DEC3F7"/>
<path d="M736.783 526.413L799.767 491.948L718.766 514.686L736.783 526.413Z" fill="white"/>
<path d="M742.292 529.989L762.245 542.86L799.767 491.948L742.292 529.989Z" fill="white"/>
<path d="M736.783 526.413L743.632 544.004L742.292 529.989L799.767 491.948L736.783 526.413Z" fill="#E6D1F9"/>
<g opacity="0.3">
<path opacity="0.3" d="M554.995 678.899C554.846 678.899 554.548 678.756 554.399 678.613C553.804 677.898 553.059 677.183 552.463 676.468C552.166 676.182 552.166 675.753 552.612 675.467C552.91 675.181 553.357 675.181 553.655 675.61C554.25 676.325 554.846 677.04 555.59 677.755C555.888 678.041 555.888 678.47 555.59 678.756C555.441 678.899 555.293 678.899 554.995 678.899ZM548.592 671.176C548.294 671.176 548.145 671.033 547.997 670.89C547.401 670.032 546.805 669.317 546.359 668.459C546.21 668.173 546.21 667.744 546.656 667.458C546.954 667.315 547.401 667.315 547.699 667.744C548.294 668.602 548.741 669.317 549.337 670.175C549.634 670.461 549.485 670.89 549.188 671.176C548.89 671.033 548.741 671.176 548.592 671.176ZM543.232 662.453C542.934 662.453 542.636 662.31 542.636 662.024C542.189 661.166 541.743 660.307 541.296 659.449C541.147 659.02 541.296 658.734 541.594 658.448C541.892 658.305 542.338 658.448 542.636 658.734C543.083 659.592 543.53 660.45 543.976 661.309C544.125 661.595 543.976 662.024 543.678 662.31C543.53 662.453 543.381 662.453 543.232 662.453ZM539.211 653.3C538.914 653.3 538.616 653.157 538.467 652.871C538.169 652.013 537.871 651.012 537.574 650.154C537.425 649.725 537.722 649.439 538.02 649.296C538.467 649.153 538.765 649.439 538.914 649.725C539.211 650.583 539.509 651.584 539.807 652.442C539.956 652.871 539.807 653.157 539.36 653.3C539.36 653.3 539.36 653.3 539.211 653.3ZM536.382 643.718C536.085 643.718 535.787 643.432 535.638 643.146C535.489 642.145 535.191 641.287 535.042 640.286C535.042 639.857 535.191 639.571 535.638 639.428C536.085 639.428 536.382 639.571 536.531 640C536.68 641.001 536.829 641.859 537.127 642.717C537.276 643.146 536.978 643.432 536.531 643.575C536.531 643.718 536.382 643.718 536.382 643.718ZM534.893 633.85C534.447 633.85 534.149 633.564 534.149 633.135C534 632.134 534 631.276 534 630.275C534 629.846 534.298 629.56 534.744 629.56C535.191 629.56 535.489 629.846 535.489 630.275C535.489 631.276 535.638 632.134 535.638 633.135C535.638 633.421 535.34 633.707 534.893 633.85ZM534.744 623.84C534.298 623.84 534 623.411 534 623.124C534 622.123 534.149 621.265 534.298 620.264C534.298 619.835 534.744 619.549 535.042 619.692C535.489 619.692 535.787 620.121 535.787 620.407C535.638 621.408 535.638 622.266 535.489 623.267C535.489 623.554 535.191 623.84 534.744 623.84ZM536.085 613.829H535.936C535.489 613.686 535.34 613.4 535.34 612.971V612.685C535.489 611.827 535.787 610.969 535.936 610.11C536.085 609.681 536.382 609.538 536.829 609.538C537.276 609.681 537.425 609.967 537.425 610.396C537.276 611.255 536.978 612.113 536.829 612.971V613.257C536.829 613.686 536.531 613.829 536.085 613.829ZM538.914 604.247C538.765 604.247 538.765 604.247 538.616 604.247C538.169 604.104 538.02 603.675 538.169 603.389C538.467 602.531 538.914 601.53 539.211 600.672C539.36 600.243 539.807 600.1 540.105 600.243C540.552 600.386 540.7 600.815 540.552 601.101C540.254 601.959 539.807 602.817 539.509 603.818C539.509 603.961 539.211 604.247 538.914 604.247ZM543.083 595.094C542.934 595.094 542.785 595.094 542.785 594.951C542.487 594.808 542.338 594.379 542.487 593.95C542.934 593.092 543.381 592.234 543.976 591.376C544.125 591.09 544.572 590.947 545.019 591.09C545.316 591.233 545.465 591.662 545.316 592.091C544.87 592.949 544.423 593.807 543.976 594.522C543.53 594.951 543.232 595.094 543.083 595.094ZM548.294 586.514C548.145 586.514 547.997 586.514 547.848 586.371C547.55 586.084 547.401 585.655 547.699 585.369C548.294 584.511 548.89 583.796 549.485 583.081C549.783 582.795 550.23 582.652 550.528 582.938C550.826 583.224 550.974 583.653 550.677 583.939C550.081 584.654 549.485 585.512 548.89 586.228C548.89 586.371 548.592 586.514 548.294 586.514ZM554.846 578.648C554.697 578.648 554.548 578.648 554.399 578.505C554.101 578.219 554.101 577.79 554.399 577.504C555.144 576.789 555.739 576.074 556.484 575.359C556.782 575.073 557.228 575.073 557.526 575.359C557.824 575.645 557.824 576.074 557.526 576.36C556.782 577.075 556.186 577.79 555.441 578.362C555.293 578.505 554.995 578.648 554.846 578.648ZM562.291 571.64C562.142 571.64 561.844 571.497 561.695 571.354C561.397 571.068 561.397 570.639 561.844 570.353C562.589 569.781 563.333 569.066 564.226 568.494C564.524 568.208 564.971 568.351 565.269 568.637C565.567 568.923 565.418 569.352 565.12 569.638C564.375 570.21 563.631 570.782 562.886 571.497C562.589 571.64 562.44 571.64 562.291 571.64ZM570.629 565.634C570.331 565.634 570.182 565.491 570.034 565.348C569.885 565.062 569.885 564.633 570.331 564.347C571.225 563.775 571.969 563.346 572.863 562.774C573.16 562.631 573.607 562.631 573.905 563.06C574.054 563.346 574.054 563.775 573.607 564.061C572.714 564.49 571.969 565.062 571.076 565.491C570.927 565.634 570.778 565.634 570.629 565.634ZM579.861 560.914C579.563 560.914 579.265 560.771 579.116 560.485C578.967 560.056 579.116 559.77 579.414 559.484L579.861 559.341C580.605 559.055 581.35 558.626 582.243 558.34C582.69 558.197 582.988 558.34 583.286 558.769C583.434 559.198 583.286 559.484 582.839 559.77C582.094 560.056 581.35 560.342 580.605 560.771L580.159 560.914C580.01 560.914 579.861 560.914 579.861 560.914ZM589.539 557.339C589.242 557.339 588.944 557.196 588.795 556.91C588.646 556.481 588.944 556.195 589.242 556.052C590.135 555.766 591.177 555.48 592.071 555.194C592.517 555.051 592.815 555.337 592.964 555.623C593.113 556.052 592.815 556.338 592.517 556.481C591.624 556.767 590.582 557.053 589.688 557.339H589.539ZM599.664 554.765C599.367 554.765 599.069 554.479 598.92 554.193C598.771 553.764 599.069 553.478 599.516 553.335C600.558 553.192 601.451 552.906 602.494 552.763C602.94 552.62 603.238 552.906 603.387 553.335C603.387 553.764 603.238 554.05 602.791 554.193C601.749 554.336 600.856 554.479 599.813 554.765C599.664 554.765 599.664 554.765 599.664 554.765ZM609.938 553.049C609.641 553.049 609.194 552.763 609.194 552.477C609.194 552.048 609.492 551.762 609.79 551.619C610.832 551.476 611.725 551.333 612.768 551.333C613.214 551.333 613.512 551.619 613.661 551.905C613.661 552.334 613.363 552.62 613.065 552.763C612.023 552.906 610.981 552.906 609.938 553.049ZM620.213 552.048C619.766 552.048 619.468 551.762 619.468 551.333C619.468 550.904 619.766 550.618 620.213 550.618C621.255 550.475 622.148 550.475 623.19 550.475C623.637 550.475 623.935 550.761 623.935 551.19C623.935 551.619 623.637 551.905 623.19 551.905C622.297 551.905 621.255 552.048 620.213 552.048C620.361 552.048 620.213 552.048 620.213 552.048ZM630.635 551.476C630.189 551.476 629.891 551.19 629.891 550.761C629.891 550.332 630.189 550.046 630.635 550.046L633.613 549.903C634.06 549.903 634.358 550.189 634.358 550.618C634.358 551.047 634.06 551.333 633.613 551.333L630.635 551.476ZM641.058 551.047C640.612 551.047 640.314 550.761 640.314 550.332C640.314 549.903 640.612 549.617 641.058 549.617L644.036 549.474C644.483 549.474 644.781 549.76 644.781 550.189C644.781 550.618 644.483 550.904 644.036 550.904L641.058 551.047ZM651.481 550.475C651.035 550.475 650.737 550.189 650.737 549.76C650.737 549.331 651.035 549.045 651.481 549.045C652.524 549.045 653.417 548.902 654.459 548.902C654.906 548.902 655.204 549.188 655.204 549.617C655.204 550.046 654.906 550.332 654.459 550.332C653.566 550.475 652.524 550.475 651.481 550.475ZM661.904 549.903C661.458 549.903 661.16 549.617 661.16 549.188C661.16 548.759 661.458 548.472 661.904 548.472C662.947 548.329 663.84 548.329 664.882 548.186C665.329 548.186 665.627 548.472 665.627 548.759C665.627 549.188 665.329 549.474 665.031 549.474C663.989 549.617 662.947 549.76 661.904 549.903ZM672.327 548.759C672.029 548.759 671.583 548.472 671.583 548.186C671.583 547.757 671.732 547.471 672.178 547.328C673.221 547.185 674.114 547.042 675.156 546.899C675.603 546.899 675.901 547.042 676.05 547.471C676.05 547.9 675.901 548.186 675.454 548.329C674.412 548.472 673.369 548.615 672.327 548.759ZM682.452 546.899C682.154 546.899 681.857 546.613 681.708 546.327C681.559 545.898 681.857 545.612 682.303 545.469C683.197 545.183 684.239 545.04 685.132 544.754C685.579 544.611 685.877 544.897 686.026 545.326C686.175 545.755 685.877 546.041 685.43 546.184C684.537 546.47 683.495 546.613 682.452 546.899C682.601 546.899 682.601 546.899 682.452 546.899ZM692.429 544.039C692.131 544.039 691.833 543.896 691.684 543.61C691.535 543.181 691.684 542.895 692.131 542.752C693.024 542.466 693.918 542.037 694.96 541.751C695.406 541.608 695.704 541.751 695.853 542.18C696.002 542.609 695.853 542.895 695.406 543.038C694.513 543.324 693.471 543.753 692.577 544.039C692.726 544.039 692.577 544.039 692.429 544.039ZM702.107 540.035C701.809 540.035 701.511 539.892 701.511 539.606C701.362 539.32 701.511 538.891 701.809 538.605C702.703 538.176 703.596 537.747 704.34 537.318C704.638 537.175 705.085 537.175 705.383 537.604C705.532 537.89 705.532 538.319 705.085 538.605C704.192 539.034 703.298 539.606 702.405 540.035C702.256 540.035 702.107 540.035 702.107 540.035ZM724.293 536.03C723.251 536.03 722.208 535.887 721.315 535.887C720.868 535.887 720.57 535.458 720.57 535.172C720.57 534.743 721.017 534.457 721.315 534.457C722.357 534.6 723.251 534.6 724.293 534.6C724.74 534.6 725.037 534.886 725.037 535.315C725.037 535.744 724.74 536.03 724.293 536.03ZM731.738 535.887C731.291 535.887 730.993 535.601 730.993 535.172C730.993 534.743 731.291 534.457 731.738 534.457C732.78 534.314 733.674 534.314 734.716 534.171C735.163 534.171 735.46 534.457 735.609 534.743C735.609 535.172 735.311 535.458 735.014 535.601C733.822 535.601 732.78 535.744 731.738 535.887ZM710.892 534.886C710.594 534.886 710.445 534.743 710.296 534.6C709.999 534.314 710.147 533.885 710.445 533.599C710.296 533.456 710.296 533.17 710.445 533.027C710.594 532.598 711.041 532.455 711.339 532.598C711.488 532.598 711.636 532.741 711.785 532.741C712.083 532.455 712.53 532.169 712.828 532.026C713.125 531.74 713.572 531.883 713.87 532.169C714.168 532.455 714.019 532.884 713.721 533.17L713.572 533.313C713.87 533.313 714.019 533.456 714.317 533.456C714.763 533.599 714.912 533.885 714.912 534.314C714.763 534.743 714.466 534.886 714.019 534.886C713.423 534.743 712.828 534.6 712.232 534.457C711.934 534.6 711.785 534.743 711.488 535.029C711.19 534.743 711.041 534.886 710.892 534.886ZM742.012 534.314C741.714 534.314 741.416 534.028 741.267 533.742C741.118 533.313 741.416 533.027 741.863 532.884C742.31 532.741 742.756 532.741 743.352 532.598C743.799 532.455 744.394 532.312 744.841 532.312C745.288 532.169 745.585 532.455 745.734 532.884C745.883 533.313 745.585 533.599 745.139 533.742C744.692 533.885 744.096 534.028 743.65 534.028C743.203 534.171 742.756 534.171 742.161 534.314H742.012ZM752.137 531.74C751.839 531.74 751.541 531.597 751.393 531.311C751.244 530.882 751.541 530.596 751.839 530.453C752.733 530.167 753.775 529.881 754.668 529.595C755.115 529.452 755.413 529.595 755.562 530.024C755.711 530.453 755.562 530.739 755.115 530.882C754.222 531.168 753.179 531.454 752.286 531.74H752.137ZM704.34 530.882C704.192 530.882 704.043 530.882 703.894 530.739C703 530.31 702.107 529.738 701.362 529.166C701.065 528.88 700.916 528.451 701.214 528.165C701.511 527.879 701.958 527.736 702.256 528.022C703 528.594 703.894 529.023 704.787 529.595C705.085 529.738 705.234 530.167 705.085 530.596C704.787 530.882 704.638 530.882 704.34 530.882ZM761.815 528.308C761.518 528.308 761.22 528.165 761.071 527.879C760.922 527.45 761.071 527.164 761.518 526.878C762.411 526.449 763.304 526.163 764.198 525.734C764.645 525.591 764.942 525.734 765.24 526.02C765.389 526.449 765.24 526.735 764.942 527.021C764.049 527.45 763.156 527.736 762.262 528.165C762.113 528.308 761.964 528.308 761.815 528.308ZM718.635 528.165C718.486 528.165 718.337 528.165 718.188 528.022C717.89 527.736 717.89 527.307 718.188 527.021C718.784 526.306 719.528 525.591 720.124 524.876C720.422 524.59 720.868 524.447 721.166 524.733C721.464 525.019 721.613 525.448 721.315 525.734C720.719 526.449 720.124 527.307 719.379 528.022C718.933 528.022 718.784 528.165 718.635 528.165ZM696.151 524.733C696.002 524.733 695.704 524.59 695.555 524.447C694.811 523.731 694.215 523.016 693.62 522.158C693.322 521.872 693.471 521.443 693.769 521.157C694.066 520.871 694.513 521.014 694.811 521.3C695.406 522.015 696.002 522.73 696.747 523.445C697.044 523.731 697.044 524.161 696.747 524.447C696.598 524.59 696.449 524.733 696.151 524.733ZM771.196 524.018C770.898 524.018 770.6 523.875 770.6 523.588C770.452 523.302 770.6 522.873 770.898 522.587C771.792 522.158 772.685 521.729 773.43 521.157C773.727 521.014 774.174 521.014 774.472 521.443C774.621 521.729 774.621 522.158 774.174 522.444C773.281 522.873 772.387 523.445 771.494 523.875C771.494 524.018 771.345 524.018 771.196 524.018ZM724.442 519.87C724.293 519.87 724.293 519.87 724.144 519.727C723.846 519.584 723.548 519.155 723.846 518.726C724.293 517.868 724.591 517.01 725.037 516.152C725.186 515.723 725.633 515.58 725.931 515.723C726.377 515.866 726.526 516.295 726.377 516.581C726.08 517.439 725.633 518.44 725.186 519.298C724.888 519.727 724.74 519.87 724.442 519.87ZM780.13 518.869C779.832 518.869 779.683 518.726 779.534 518.583C779.237 518.297 779.386 517.868 779.683 517.582C780.577 517.01 781.321 516.581 782.066 516.009C782.364 515.723 782.81 515.866 783.108 516.152C783.406 516.438 783.257 516.867 782.959 517.153C782.215 517.725 781.321 518.297 780.428 518.726C780.428 518.726 780.279 518.869 780.13 518.869ZM690.493 516.295C690.195 516.295 689.897 516.152 689.748 515.866C689.302 515.008 689.004 514.007 688.706 513.149C688.557 512.72 688.855 512.434 689.153 512.291C689.599 512.148 689.897 512.434 690.046 512.72C690.344 513.578 690.642 514.436 690.94 515.294C691.088 515.723 690.94 516.009 690.493 516.295C690.791 516.295 690.642 516.295 690.493 516.295ZM788.617 512.863C788.468 512.863 788.171 512.72 788.022 512.577C787.724 512.291 787.873 511.862 788.171 511.576C788.915 511.003 789.66 510.431 790.404 509.716C790.702 509.43 791.149 509.43 791.446 509.859C791.744 510.145 791.744 510.574 791.297 510.86C790.553 511.433 789.808 512.148 789.064 512.72C788.915 512.863 788.766 512.863 788.617 512.863ZM727.271 510.288C726.824 510.288 726.526 509.859 726.526 509.573C726.526 508.858 726.675 508.286 726.675 507.571C726.675 507.285 726.675 507.142 726.675 506.856C726.675 506.427 726.973 506.141 727.42 506.141C727.866 506.141 728.164 506.427 728.164 506.856C728.164 507.142 728.164 507.428 728.164 507.571C728.164 508.286 728.164 509.001 728.015 509.716C728.015 510.002 727.718 510.288 727.271 510.288ZM688.706 506.57C688.259 506.57 687.962 506.284 687.962 505.855C687.962 504.854 688.11 503.853 688.259 502.852C688.408 502.423 688.706 502.28 689.153 502.28C689.599 502.423 689.748 502.709 689.748 503.138C689.599 503.996 689.451 504.997 689.451 505.855C689.451 506.284 689.004 506.57 688.706 506.57ZM796.36 506.284C796.211 506.284 795.913 506.141 795.764 506.141C795.467 505.855 795.467 505.426 795.764 505.14C796.509 504.425 797.104 503.853 797.849 503.138C798.147 502.852 798.593 502.852 798.891 503.138C799.189 503.424 799.189 503.853 798.891 504.139C798.147 504.854 797.551 505.569 796.807 506.141C796.807 506.141 796.509 506.284 796.36 506.284ZM726.08 500.421C725.782 500.421 725.484 500.278 725.335 499.992C725.037 499.134 724.591 498.275 724.144 497.417C723.995 497.131 724.144 496.702 724.442 496.416C724.74 496.273 725.186 496.416 725.484 496.702C725.931 497.56 726.377 498.561 726.675 499.42C726.824 499.849 726.675 500.135 726.229 500.278C726.229 500.421 726.08 500.421 726.08 500.421ZM691.684 497.131C691.535 497.131 691.386 497.131 691.237 496.988C690.94 496.845 690.791 496.416 690.94 495.987C691.386 495.129 691.982 494.271 692.726 493.556C693.024 493.27 693.471 493.127 693.769 493.413C694.066 493.699 694.215 494.128 693.918 494.414C693.322 495.129 692.726 495.987 692.28 496.702C692.131 496.988 691.982 497.131 691.684 497.131ZM720.57 491.983C720.422 491.983 720.124 491.983 719.975 491.84C719.23 491.125 718.486 490.553 717.741 490.124C717.444 489.838 717.295 489.409 717.592 489.123C717.89 488.837 718.337 488.694 718.635 488.98C719.379 489.552 720.273 490.267 721.017 490.839C721.315 491.125 721.315 491.554 721.017 491.84C720.868 491.983 720.719 491.983 720.57 491.983ZM698.682 489.838C698.384 489.838 698.236 489.695 698.087 489.552C697.789 489.266 697.938 488.837 698.236 488.551C699.129 487.979 700.022 487.55 700.916 487.121C701.214 486.978 701.66 487.121 701.958 487.407C702.107 487.836 701.958 488.122 701.66 488.408C700.767 488.837 700.022 489.266 699.129 489.695C698.98 489.838 698.831 489.838 698.682 489.838ZM711.488 487.264C711.041 487.264 710.892 487.121 710.594 487.121C709.85 486.978 709.254 486.978 708.51 486.978C708.063 486.978 707.765 486.692 707.765 486.262C707.765 485.833 708.063 485.547 708.51 485.547C709.254 485.547 709.999 485.547 710.743 485.69C711.041 485.69 711.339 485.833 711.636 485.833C712.083 485.976 712.232 486.262 712.232 486.692C712.232 486.978 711.934 487.264 711.488 487.264Z" fill="white"/>
</g>
<path opacity="0.4" d="M438.037 487.847H424.338C424.189 487.847 424.189 487.847 424.041 487.847C424.041 487.847 424.041 487.847 423.892 487.847C423.743 487.847 423.743 487.99 423.594 487.99L416.149 495.141C416 495.284 416 495.284 416 495.427C416 495.427 416 495.427 416 495.57C416 495.713 416 495.713 416 495.856V517.879C416 518.451 416.447 518.881 417.042 518.881H438.186C438.782 518.881 439.228 518.451 439.228 517.879V488.848C439.228 488.276 438.782 487.847 438.037 487.847ZM423.296 491.422V494.998H419.574L423.296 491.422ZM436.995 517.021H418.085V497.143H424.487C425.083 497.143 425.53 496.714 425.53 496.142V489.992H436.995V517.021Z" fill="#8F50F2"/>
<defs>
<linearGradient id="paint0_linear_897_299" x1="1295" y1="949.2" x2="-117.251" y2="230.352" gradientUnits="userSpaceOnUse">
<stop offset="0.15407" stop-color="#2C146C"/>
<stop offset="0.680427" stop-color="#A42F80"/>
<stop offset="1" stop-color="#FD9536"/>
</linearGradient>
<linearGradient id="paint1_linear_897_299" x1="1731.87" y1="233.836" x2="1846.52" y2="37.4155" gradientUnits="userSpaceOnUse">
<stop stop-color="#A52A58"/>
<stop offset="1" stop-color="#4E2059"/>
</linearGradient>
<linearGradient id="paint2_linear_897_299" x1="1065.12" y1="441.106" x2="1436.09" y2="-158.236" gradientUnits="userSpaceOnUse">
<stop stop-color="#F06316"/>
<stop offset="1" stop-color="#CE069E"/>
</linearGradient>
<linearGradient id="paint3_linear_897_299" x1="1080.32" y1="475.613" x2="1490.97" y2="-235.027" gradientUnits="userSpaceOnUse">
<stop stop-color="#F06316"/>
<stop offset="1" stop-color="#CE069E"/>
</linearGradient>
<linearGradient id="paint4_linear_897_299" x1="1213.83" y1="415.236" x2="1493.24" y2="-123.098" gradientUnits="userSpaceOnUse">
<stop stop-color="#F7791E"/>
<stop offset="1" stop-color="#D50D85"/>
</linearGradient>
<linearGradient id="paint5_linear_897_299" x1="945.801" y1="513.796" x2="685.921" y2="-266.976" gradientUnits="userSpaceOnUse">
<stop stop-color="#A52A58"/>
<stop offset="1" stop-color="#4E2059"/>
</linearGradient>
<linearGradient id="paint6_linear_897_299" x1="242.958" y1="874.058" x2="880.288" y2="-798.967" gradientUnits="userSpaceOnUse">
<stop stop-color="#F06316"/>
<stop offset="1" stop-color="#CE069E"/>
</linearGradient>
<clipPath id="clip0_897_299">
<rect width="1920" height="513" fill="white"/>
</clipPath>
<clipPath id="clip1_897_299">
<rect width="1920" height="513" fill="white" transform="translate(1920 513) rotate(-180)"/>
</clipPath>
</defs>
</svg>
