<svg width="177" height="73" viewBox="0 0 177 73" fill="none" xmlns="http://www.w3.org/2000/svg">
<g clip-path="url(#clip0_84_216)">
<path d="M69.53 39.62C69.95 40.38 70.42 41.04 70.94 41.6C71.48 42.16 72.06 42.59 72.68 42.89C73.32 43.19 73.99 43.34 74.69 43.34C75.43 43.34 76.04 43.16 76.52 42.8C77 42.42 77.24 41.91 77.24 41.27C77.24 40.73 77.1 40.3 76.82 39.98C76.54 39.64 76.09 39.32 75.47 39.02C74.85 38.72 74.03 38.38 73.01 38C72.51 37.82 71.93 37.57 71.27 37.25C70.63 36.93 70.02 36.52 69.44 36.02C68.86 35.5 68.38 34.88 68 34.16C67.62 33.42 67.43 32.53 67.43 31.49C67.43 30.25 67.75 29.18 68.39 28.28C69.05 27.38 69.93 26.7 71.03 26.24C72.15 25.76 73.39 25.52 74.75 25.52C76.15 25.52 77.36 25.75 78.38 26.21C79.42 26.67 80.28 27.25 80.96 27.95C81.64 28.65 82.16 29.36 82.52 30.08L78.65 32.24C78.35 31.74 78 31.31 77.6 30.95C77.22 30.57 76.79 30.28 76.31 30.08C75.85 29.86 75.35 29.75 74.81 29.75C74.09 29.75 73.54 29.91 73.16 30.23C72.78 30.53 72.59 30.91 72.59 31.37C72.59 31.85 72.77 32.27 73.13 32.63C73.51 32.99 74.04 33.32 74.72 33.62C75.42 33.92 76.26 34.24 77.24 34.58C77.98 34.86 78.67 35.19 79.31 35.57C79.95 35.93 80.51 36.37 80.99 36.89C81.49 37.41 81.88 38.01 82.16 38.69C82.44 39.37 82.58 40.15 82.58 41.03C82.58 42.09 82.36 43.04 81.92 43.88C81.5 44.7 80.92 45.39 80.18 45.95C79.46 46.51 78.63 46.93 77.69 47.21C76.77 47.51 75.82 47.66 74.84 47.66C73.48 47.66 72.21 47.42 71.03 46.94C69.87 46.44 68.86 45.77 68 44.93C67.14 44.09 66.47 43.17 65.99 42.17L69.53 39.62ZM85.97 26H91.22V47H85.97V26ZM98.36 26H104.3L95.78 35.84L104.75 47H98.6L89.75 35.99L98.36 26ZM109.622 36.5C109.622 37.74 109.862 38.84 110.342 39.8C110.842 40.74 111.532 41.48 112.412 42.02C113.312 42.56 114.362 42.83 115.562 42.83C116.742 42.83 117.772 42.56 118.652 42.02C119.552 41.48 120.242 40.74 120.722 39.8C121.222 38.84 121.472 37.74 121.472 36.5C121.472 35.26 121.232 34.17 120.752 33.23C120.272 32.27 119.592 31.52 118.712 30.98C117.832 30.44 116.782 30.17 115.562 30.17C114.362 30.17 113.312 30.44 112.412 30.98C111.532 31.52 110.842 32.27 110.342 33.23C109.862 34.17 109.622 35.26 109.622 36.5ZM104.252 36.5C104.252 34.88 104.532 33.4 105.092 32.06C105.672 30.72 106.472 29.56 107.492 28.58C108.512 27.6 109.712 26.85 111.092 26.33C112.472 25.79 113.962 25.52 115.562 25.52C117.182 25.52 118.672 25.79 120.032 26.33C121.412 26.85 122.612 27.6 123.632 28.58C124.652 29.56 125.442 30.72 126.002 32.06C126.562 33.4 126.842 34.88 126.842 36.5C126.842 38.12 126.562 39.61 126.002 40.97C125.462 42.33 124.682 43.51 123.662 44.51C122.662 45.51 121.472 46.29 120.092 46.85C118.712 47.39 117.202 47.66 115.562 47.66C113.902 47.66 112.382 47.39 111.002 46.85C109.622 46.29 108.422 45.51 107.402 44.51C106.402 43.51 105.622 42.33 105.062 40.97C104.522 39.61 104.252 38.12 104.252 36.5ZM130.091 26H135.161V42.65H143.591V47H130.091V26ZM150.149 42.95L150.509 39.08H160.919L161.249 42.95H150.149ZM155.639 33.71L152.699 40.49L152.939 41.6L150.329 47H144.599L155.639 24.68L166.709 47H160.949L158.429 41.81L158.609 40.52L155.639 33.71Z" fill="white"/>
</g>
<g clip-path="url(#clip1_84_216)">
<path fill-rule="evenodd" clip-rule="evenodd" d="M29.8198 68.6289L27.5635 72.7419L25.3123 68.639C26.044 68.7198 26.7758 68.7754 27.5025 68.7754C28.2648 68.7754 29.0474 68.7198 29.8198 68.6289ZM36.1313 57.1436L30.8768 66.7087C30.6888 66.7441 30.4906 66.7744 30.3026 66.7997C29.3675 66.9361 28.4172 67.022 27.4974 67.022C26.5776 67.022 25.6222 66.9361 24.6872 66.7997C24.5449 66.7795 24.4026 66.7492 24.2552 66.729L19.0058 57.1688C19.2954 57.2042 19.5902 57.2244 19.9205 57.2244C22.1768 57.2244 23.3761 56.2947 24.5652 55.3599C25.3732 54.7384 26.1812 54.1067 27.4873 54.1067C28.7933 54.1067 29.5962 54.7384 30.4093 55.3599C31.5984 56.2947 32.7977 57.2244 35.054 57.2244C35.4453 57.2244 35.796 57.1991 36.1313 57.1436Z" fill="white"/>
<path fill-rule="evenodd" clip-rule="evenodd" d="M27.5025 22.4603H27.4872C21.3688 22.4653 15.8093 24.9564 11.7795 28.9634C7.76487 32.9602 5.26972 38.473 5.25956 44.5466V44.582V44.5971C5.26464 50.6758 7.76995 56.2088 11.7998 60.2157C14.3153 62.7119 17.4304 64.6168 20.9063 65.6982L17.7455 59.7963C16.6326 59.0889 15.601 58.2704 14.671 57.3457C11.3831 54.0815 9.34022 49.5642 9.33514 44.5971V44.582V44.5466C9.34022 39.5846 11.3882 35.0774 14.6659 31.8132C17.9487 28.544 22.4868 26.5127 27.4872 26.5127H27.5025H27.538C32.5182 26.5178 37.046 28.549 40.3288 31.8132H40.339C43.6269 35.0774 45.6647 39.5947 45.6698 44.5668V44.582V44.6173C45.6596 49.5743 43.6269 54.0764 40.339 57.3457C39.4904 58.1895 38.5553 58.9424 37.5542 59.6094L34.3425 65.6173C37.7219 64.5259 40.7659 62.6462 43.2255 60.2006C47.2451 56.2037 49.7403 50.6859 49.7454 44.6224V44.587V44.5719C49.7403 38.4881 47.24 32.9602 43.2102 28.9533L43.2153 28.9482C39.1956 24.9514 33.6412 22.4754 27.538 22.4653" fill="white"/>
<path fill-rule="evenodd" clip-rule="evenodd" d="M37.9608 23.0919C30.9836 19.4992 24.0215 19.7115 17.0341 23.0919C17.0341 19.7266 17.0341 16.5332 17.0341 13.1578C22.0701 7.22063 33.3466 7.49854 37.9608 13.1578C37.9608 15.9622 37.9608 20.2824 37.9608 23.0919ZM44.3384 15.8409V14.3604V7.10947V6.01298C44.3384 5.67444 44.0844 5.38642 43.7439 5.346L38.6418 4.70428L27.5025 0L0 11.6116L15.2097 15.5327V12.9001L15.4181 12.3342C15.9212 11.738 16.5005 11.1821 17.1205 10.6819C20.012 8.35754 23.8945 7.2459 27.716 7.28127C31.5425 7.32169 35.3437 8.51924 38.0574 10.7931C38.6164 11.263 39.1347 11.7885 39.6022 12.3544L39.8004 12.9001V15.5327L42.9918 14.7091V15.8409C42.6818 16.0582 42.4734 16.4119 42.4734 16.8212C42.4734 17.2608 42.7174 17.6398 43.068 17.8469C42.8851 17.9379 42.7072 18.0642 42.5497 18.236L42.138 22.1015C42.5497 22.435 43.0832 22.6371 43.6626 22.6371C44.2419 22.6371 44.7704 22.435 45.1973 22.1015L44.7856 18.236C44.6281 18.0642 44.4502 17.9328 44.2673 17.8469C44.623 17.6398 44.8568 17.2608 44.8568 16.8212C44.8619 16.4119 44.6535 16.0532 44.3384 15.8409ZM55 11.6116L45.6953 7.68045V14.0067L55 11.6116Z" fill="white"/>
<path fill-rule="evenodd" clip-rule="evenodd" d="M18.2996 51.8784V24.5977H24.4434V50.8729C24.0318 51.1104 23.6557 51.3782 23.2797 51.651C22.5479 52.1766 21.8161 52.7071 20.6321 52.7071C19.6157 52.7071 18.9399 52.318 18.2996 51.8784ZM30.5517 52.2321V25.9569H36.6956V53.2377C36.0603 53.6773 35.3794 54.0714 34.3579 54.0714C33.179 54.0714 32.4472 53.5408 31.7154 53.0103C31.3394 52.7425 30.9684 52.4696 30.5517 52.2321Z" fill="white"/>
</g>
<defs>
<clipPath id="clip0_84_216">
<rect width="102" height="43" fill="white" transform="translate(65 15)"/>
</clipPath>
<clipPath id="clip1_84_216">
<rect width="55" height="72.7419" fill="white" transform="matrix(-1 0 0 1 55 0)"/>
</clipPath>
</defs>
</svg>
