<svg width="13" height="13" viewBox="0 0 13 13" fill="none" xmlns="http://www.w3.org/2000/svg">
<path opacity="0.6" d="M6.12622 3.29541C5.56112 3.29541 5.03247 3.44124 4.54028 3.73291C4.06632 4.00635 3.68351 4.38916 3.39185 4.88135C3.11841 5.35531 2.98169 5.87484 2.98169 6.43994C2.98169 7.00505 3.11841 7.53369 3.39185 8.02588C3.68351 8.49984 4.06632 8.88265 4.54028 9.17432C5.03247 9.44775 5.56112 9.58447 6.12622 9.58447C6.69132 9.58447 7.21086 9.44775 7.68481 9.17432C8.177 8.88265 8.55981 8.49984 8.83325 8.02588C9.12492 7.53369 9.27075 7.00505 9.27075 6.43994C9.27075 5.87484 9.12492 5.35531 8.83325 4.88135C8.55981 4.38916 8.177 4.00635 7.68481 3.73291C7.21086 3.44124 6.69132 3.29541 6.12622 3.29541ZM6.12622 8.49072C5.56112 8.49072 5.07804 8.2902 4.677 7.88916C4.27596 7.48812 4.07544 7.00505 4.07544 6.43994C4.07544 5.87484 4.27596 5.39176 4.677 4.99072C5.07804 4.58968 5.56112 4.38916 6.12622 4.38916C6.69132 4.38916 7.1744 4.58968 7.57544 4.99072C7.97648 5.39176 8.177 5.87484 8.177 6.43994C8.177 7.00505 7.97648 7.48812 7.57544 7.88916C7.1744 8.2902 6.69132 8.49072 6.12622 8.49072ZM10.1458 3.15869C10.1275 3.35921 10.0455 3.53239 9.89966 3.67822C9.77205 3.82406 9.60799 3.89697 9.40747 3.89697C9.20695 3.89697 9.03377 3.82406 8.88794 3.67822C8.74211 3.53239 8.66919 3.35921 8.66919 3.15869C8.66919 2.95817 8.74211 2.78499 8.88794 2.63916C9.03377 2.49333 9.20695 2.42041 9.40747 2.42041C9.60799 2.42041 9.78117 2.49333 9.927 2.63916C10.0728 2.78499 10.1458 2.95817 10.1458 3.15869ZM12.2239 3.89697C12.1874 3.36833 12.1054 2.9126 11.9778 2.52979C11.8137 2.07406 11.5585 1.68213 11.2122 1.354C10.884 1.00765 10.4921 0.752441 10.0364 0.588379C9.65356 0.460775 9.19784 0.387858 8.66919 0.369629C8.15877 0.333171 7.31112 0.314941 6.12622 0.314941C4.94132 0.314941 4.08455 0.333171 3.55591 0.369629C3.04549 0.387858 2.59888 0.460775 2.21606 0.588379C1.76034 0.752441 1.35929 1.00765 1.01294 1.354C0.684814 1.68213 0.438721 2.07406 0.274658 2.52979C0.147054 2.9126 0.0650228 3.36833 0.0285645 3.89697C0.0103353 4.40739 0.0012207 5.25505 0.0012207 6.43994C0.0012207 7.62484 0.0103353 8.48161 0.0285645 9.01025C0.0650228 9.52067 0.147054 9.96729 0.274658 10.3501C0.438721 10.8058 0.684814 11.2069 1.01294 11.5532C1.35929 11.8813 1.76034 12.1183 2.21606 12.2642C2.59888 12.41 3.04549 12.492 3.55591 12.5103C4.08455 12.5467 4.94132 12.5649 6.12622 12.5649C7.31112 12.5649 8.15877 12.5467 8.66919 12.5103C9.19784 12.492 9.65356 12.4191 10.0364 12.2915C10.4921 12.1274 10.884 11.8813 11.2122 11.5532C11.5585 11.2069 11.8137 10.8058 11.9778 10.3501C12.1054 9.96729 12.1783 9.52067 12.1965 9.01025C12.233 8.48161 12.2512 7.62484 12.2512 6.43994C12.2512 5.25505 12.2421 4.40739 12.2239 3.89697ZM10.9114 10.0493C10.6926 10.5962 10.3007 10.9881 9.7356 11.2251C9.44393 11.3345 8.95174 11.4074 8.25903 11.4438C7.87622 11.4621 7.31112 11.4712 6.56372 11.4712H5.68872C4.95955 11.4712 4.39445 11.4621 3.99341 11.4438C3.31893 11.4074 2.82674 11.3345 2.51685 11.2251C1.96997 11.0063 1.57804 10.6144 1.34106 10.0493C1.23169 9.73942 1.15877 9.24723 1.12231 8.57275C1.10409 8.17171 1.09497 7.60661 1.09497 6.87744V6.00244C1.09497 5.27327 1.10409 4.70817 1.12231 4.30713C1.15877 3.61442 1.23169 3.12223 1.34106 2.83057C1.55981 2.26546 1.95174 1.87354 2.51685 1.65479C2.82674 1.54541 3.31893 1.47249 3.99341 1.43604C4.39445 1.41781 4.95955 1.40869 5.68872 1.40869H6.56372C7.29289 1.40869 7.85799 1.41781 8.25903 1.43604C8.95174 1.47249 9.44393 1.54541 9.7356 1.65479C10.3007 1.87354 10.6926 2.26546 10.9114 2.83057C11.0208 3.12223 11.0937 3.61442 11.1301 4.30713C11.1484 4.68994 11.1575 5.25505 11.1575 6.00244V6.87744C11.1575 7.60661 11.1484 8.17171 11.1301 8.57275C11.0937 9.24723 11.0208 9.73942 10.9114 10.0493Z" fill="white"/>
</svg>
