<svg width="13" height="13" viewBox="0 0 13 13" fill="none" xmlns="http://www.w3.org/2000/svg">
<path opacity="0.6" d="M2.73584 12.6899H0.192871V4.51416H2.73584V12.6899ZM1.47803 3.39307C1.07699 3.39307 0.730632 3.24723 0.438965 2.95557C0.147298 2.6639 0.00146484 2.31755 0.00146484 1.9165C0.00146484 1.51546 0.147298 1.16911 0.438965 0.877441C0.730632 0.585775 1.07699 0.439941 1.47803 0.439941C1.87907 0.439941 2.22542 0.585775 2.51709 0.877441C2.80876 1.16911 2.95459 1.51546 2.95459 1.9165C2.95459 2.31755 2.80876 2.6639 2.51709 2.95557C2.22542 3.24723 1.87907 3.39307 1.47803 3.39307ZM12.2515 12.6899H9.7085V8.69775C9.7085 8.0415 9.65381 7.56755 9.54443 7.27588C9.34391 6.78369 8.95199 6.5376 8.36865 6.5376C7.78532 6.5376 7.37516 6.75635 7.13818 7.19385C6.95589 7.52197 6.86475 8.00505 6.86475 8.64307V12.6899H4.34912V4.51416H6.78271V5.63525H6.81006C6.99235 5.27067 7.28402 4.96989 7.68506 4.73291C8.12256 4.44124 8.63298 4.29541 9.21631 4.29541C10.4012 4.29541 11.2306 4.66911 11.7046 5.4165C12.0692 6.01807 12.2515 6.94775 12.2515 8.20557V12.6899Z" fill="white"/>
</svg>
