<svg width="93" height="13" viewBox="0 0 93 13" fill="none" xmlns="http://www.w3.org/2000/svg">
<path d="M5.80262 0.452219L4.21589 3.81352L0.665805 4.35428C0.0291704 4.45075 -0.225969 5.27076 0.235712 5.74043L2.80412 8.35534L2.19664 12.0492C2.0873 12.7169 2.76038 13.217 3.32412 12.9048L6.5 11.1607L9.67588 12.9048C10.2396 13.2145 10.9127 12.7169 10.8034 12.0492L10.1959 8.35534L12.7643 5.74043C13.226 5.27076 12.9708 4.45075 12.3342 4.35428L8.78411 3.81352L7.19738 0.452219C6.91308 -0.146926 6.08935 -0.154542 5.80262 0.452219Z" fill="#FFC78B"/>
<path d="M25.8026 0.452219L24.2159 3.81352L20.6658 4.35428C20.0292 4.45075 19.774 5.27076 20.2357 5.74043L22.8041 8.35534L22.1966 12.0492C22.0873 12.7169 22.7604 13.217 23.3241 12.9048L26.5 11.1607L29.6759 12.9048C30.2396 13.2145 30.9127 12.7169 30.8034 12.0492L30.1959 8.35534L32.7643 5.74043C33.226 5.27076 32.9708 4.45075 32.3342 4.35428L28.7841 3.81352L27.1974 0.452219C26.9131 -0.146926 26.0893 -0.154542 25.8026 0.452219Z" fill="#FFC78B"/>
<path d="M45.8026 0.452219L44.2159 3.81352L40.6658 4.35428C40.0292 4.45075 39.774 5.27076 40.2357 5.74043L42.8041 8.35534L42.1966 12.0492C42.0873 12.7169 42.7604 13.217 43.3241 12.9048L46.5 11.1607L49.6759 12.9048C50.2396 13.2145 50.9127 12.7169 50.8034 12.0492L50.1959 8.35534L52.7643 5.74043C53.226 5.27076 52.9708 4.45075 52.3342 4.35428L48.7841 3.81352L47.1974 0.452219C46.9131 -0.146926 46.0893 -0.154542 45.8026 0.452219Z" fill="#FFC78B"/>
<path d="M65.8026 0.452219L64.2159 3.81352L60.6658 4.35428C60.0292 4.45075 59.774 5.27076 60.2357 5.74043L62.8041 8.35534L62.1966 12.0492C62.0873 12.7169 62.7604 13.217 63.3241 12.9048L66.5 11.1607L69.6759 12.9048C70.2396 13.2145 70.9127 12.7169 70.8034 12.0492L70.1959 8.35534L72.7643 5.74043C73.226 5.27076 72.9708 4.45075 72.3342 4.35428L68.7841 3.81352L67.1974 0.452219C66.9131 -0.146926 66.0893 -0.154542 65.8026 0.452219Z" fill="#FFC78B"/>
<path d="M85.8026 0.452219L84.2159 3.81352L80.6658 4.35428C80.0292 4.45075 79.774 5.27076 80.2357 5.74043L82.8041 8.35534L82.1966 12.0492C82.0873 12.7169 82.7604 13.217 83.3241 12.9048L86.5 11.1607L89.6759 12.9048C90.2396 13.2145 90.9127 12.7169 90.8034 12.0492L90.1959 8.35534L92.7643 5.74043C93.226 5.27076 92.9708 4.45075 92.3342 4.35428L88.7841 3.81352L87.1974 0.452219C86.9131 -0.146926 86.0893 -0.154542 85.8026 0.452219Z" fill="#FFC78B"/>
</svg>
