<svg width="14" height="13" viewBox="0 0 14 13" fill="none" xmlns="http://www.w3.org/2000/svg">
<path opacity="0.6" d="M12.552 3.59619C12.5702 3.66911 12.5793 3.7876 12.5793 3.95166C12.5793 5.26416 12.2603 6.53109 11.6223 7.75244C10.9661 9.04671 10.0455 10.0767 8.8606 10.8423C7.56632 11.6991 6.08065 12.1274 4.40356 12.1274C2.7994 12.1274 1.33195 11.6991 0.0012207 10.8423C0.201742 10.8605 0.429606 10.8696 0.684814 10.8696C2.01554 10.8696 3.20955 10.4595 4.26685 9.63916C3.62882 9.63916 3.06372 9.45687 2.57153 9.09229C2.09757 8.70947 1.76945 8.23551 1.58716 7.67041C1.76945 7.68864 1.94263 7.69775 2.10669 7.69775C2.3619 7.69775 2.61711 7.67041 2.87231 7.61572C2.21606 7.46989 1.66919 7.13265 1.23169 6.604C0.794189 6.07536 0.575439 5.4738 0.575439 4.79932V4.74463C0.976481 4.98161 1.40487 5.10921 1.8606 5.12744C1.47778 4.854 1.16789 4.50765 0.930908 4.08838C0.693929 3.66911 0.575439 3.21338 0.575439 2.72119C0.575439 2.21077 0.712158 1.7277 0.985596 1.27197C1.69653 2.1652 2.56242 2.87614 3.58325 3.40479C4.62231 3.93343 5.72518 4.2251 6.89185 4.27979C6.85539 4.06104 6.83716 3.84229 6.83716 3.62354C6.83716 3.11312 6.96476 2.63916 7.21997 2.20166C7.47518 1.74593 7.82153 1.39046 8.25903 1.13525C8.69653 0.880046 9.17049 0.752441 9.68091 0.752441C10.1002 0.752441 10.483 0.834473 10.8293 0.998535C11.1939 1.1626 11.5129 1.38135 11.7864 1.65479C12.4426 1.52718 13.0533 1.29932 13.6184 0.971191C13.3997 1.64567 12.9804 2.17432 12.3606 2.55713C12.9075 2.48421 13.4543 2.32926 14.0012 2.09229C13.6002 2.67562 13.1171 3.17692 12.552 3.59619Z" fill="white"/>
</svg>
